<?xml version="1.0" encoding="UTF-8"?>
<svg id="Layer_1" data-name="Layer 1" xmlns="http://www.w3.org/2000/svg" viewBox="0 0 99.24 11.87">
  <g>
    <path d="M49.62,3.93c-.19-.52-.9-.99-1.34-1.08.46-.59.86.11.99.03.13-.07-.18-.34-.02-.61.11-.18.25-.21.36-.41.11.2.25.23.36.41.16.27-.15.53-.02.61.14.08.53-.63,1-.03-.44.09-1.15.56-1.34,1.08Z"/>
    <path d="M49.61,9.19c0-.19-.1-.29-.1-.39,0-.07.05-.12.11-.12s.11.05.11.12c0,.1-.1.2-.1.39,0,.31.34.4.34.69,0,.19-.16.35-.35.35s-.35-.15-.35-.35c0-.29.34-.39.34-.69Z"/>
    <g>
      <g>
        <g>
          <path d="M52.36,9.84c2.87.61,4.45-.52,6.32-1.4,2.48-1.17,3.62-1.98,5.61-1.66,1.66.27,2.72,1.35,1.3,2.41-1.59,1.19-5.33,1.19-7.6-1.29-1.11-1.22-.76-2.76.44-2.85.43-.03.73.23.66.51-.41-.1-.55.28-.41.49.14.21.54.22.69-.17.19-.51-.24-1.13-1-1.11-1.04.02-2.02,1.29-.44,3.18,1.23,1.48,5.08,3.32,7.9,1.67,1.83-1.07.48-2.59-1.41-2.9-2.04-.34-3.75.19-5.92,1.25-2.14,1.04-3.74,2.29-6.1,1.82-2.47-.49-4.2-3.12-2.5-5.15.9-1.07,2.35-.91,2.71-.18.35.71-.6,1.14-1.02.53.21.47.82.64,1.16.2.35-.45.11-1.08-.28-1.41-.92-.77-2.26-.39-2.95.51-1.59,2.11-.39,4.87,2.84,5.55Z"/>
          <path d="M55,10.14c1.29-.04,2.33-.43,3.85-1.18,1.7-.84,2.87-1.74,3.84-1.97-.86.11-2.4,1-3.98,1.75-1.59.76-2.26,1.19-3.72,1.4Z"/>
        </g>
        <path d="M53.84,8.22c-.12-.03-.23-.06-.14-.23.14-.25.43-.07.51.11.17.4-.16.75-.64.68-.49-.08-.86-.52-.86-1.05,0-1.19,1.54-1.83,3.18-.72,1.66,1.12,3.21,3.06,6.35,3.45,4.11.5,5.75-1.7,4.39-3.13-.46-.48-1.22-.63-1.62-.14-.44.54-.21,1.35.38,1.79,1.12.83,2.39.01,3.27-.64,1.25-.93,2.35-1.06,3.17-.41.51.4.76,1.2.37,1.87-.33.58-1.06.8-1.68.52-.35-.15-.7-.55-.64-1.07.03-.22.27-.46.49-.34.29.17.03.41-.02.61-.07.28.08.59.43.69.46.13.87-.12,1.07-.39.33-.44.28-1.05-.11-1.48-.66-.73-1.78-.58-2.99.33-.84.64-2.2,1.26-3.43.43-.77-.52-1.07-1.46-.65-2.06.4-.56,1.36-.56,2.05.13,1.36,1.37.14,3.99-4.6,3.45-3.31-.38-4.76-2.4-6.94-3.4-.42-.19-.98-.32-1.42-.15-.62.24-.85.95-.44,1.39.25.27.71.24.76-.04.02-.12-.11-.15-.22-.17Z"/>
      </g>
      <g>
        <g>
          <path d="M46.87,9.84c-2.86.61-4.45-.52-6.32-1.4-2.48-1.17-3.62-1.98-5.61-1.66-1.66.27-2.72,1.35-1.3,2.41,1.59,1.19,5.33,1.19,7.59-1.29,1.11-1.22.76-2.76-.43-2.85-.43-.03-.73.23-.66.51.41-.1.55.28.41.49-.14.21-.54.22-.69-.17-.19-.51.24-1.13,1-1.11,1.04.02,2.02,1.29.44,3.18-1.23,1.48-5.08,3.32-7.9,1.67-1.83-1.07-.48-2.59,1.4-2.9,2.04-.34,3.75.19,5.92,1.25,2.14,1.04,3.74,2.29,6.1,1.82,2.47-.49,4.2-3.12,2.5-5.15-.9-1.07-2.35-.91-2.71-.18-.35.71.6,1.14,1.02.53-.21.47-.82.64-1.16.2-.35-.45-.11-1.08.28-1.41.92-.77,2.26-.39,2.95.51,1.59,2.11.39,4.87-2.84,5.55Z"/>
          <path d="M44.24,10.14c-1.29-.04-2.33-.43-3.85-1.18-1.7-.84-2.87-1.74-3.84-1.97.86.11,2.4,1,3.98,1.75,1.59.76,2.26,1.19,3.72,1.4Z"/>
        </g>
        <path d="M45.4,8.22c.12-.03.23-.06.14-.23-.13-.25-.43-.07-.51.11-.17.4.16.75.64.68.5-.08.86-.52.86-1.05,0-1.19-1.54-1.83-3.18-.72-1.66,1.12-3.21,3.06-6.35,3.45-4.11.5-5.75-1.7-4.4-3.13.46-.48,1.22-.63,1.62-.14.44.54.2,1.35-.38,1.79-1.12.83-2.39.01-3.27-.64-1.25-.93-2.35-1.06-3.17-.41-.51.4-.76,1.2-.37,1.87.33.58,1.06.8,1.68.52.35-.15.7-.55.64-1.07-.03-.22-.27-.46-.49-.34-.29.17-.03.41.02.61.07.28-.08.59-.43.69-.46.13-.87-.12-1.07-.39-.33-.44-.28-1.05.11-1.48.66-.73,1.78-.58,2.99.33.84.64,2.2,1.26,3.43.43.77-.52,1.07-1.46.65-2.06-.4-.56-1.36-.56-2.05.13-1.36,1.37-.14,3.99,4.6,3.45,3.31-.38,4.76-2.4,6.95-3.4.42-.19.98-.32,1.42-.15.61.24.85.95.44,1.39-.25.27-.71.24-.76-.04-.02-.12.11-.15.22-.17Z"/>
      </g>
    </g>
  </g>
  <g>
    <g>
      <g>
        <path d="M4.73,8.86c-.08.34.29.58.58.39.12-.08.18-.22.17-.35-.04-.46-.64-.47-.75-.04Z"/>
        <path d="M23.48,9.32c-.15,0-.3,0-.45,0-1.51-.02-16.86-.02-16.87-.37,0-.17.17-.11.28-.12,1.37-.03,2.74-.05,4.11-.07,2.94-.05,5.88-.09,8.82-.15,1.98-.03,3.96-.08,5.95-.12.05,0,.11,0,.16,0,.33,0,.53.15.53.46,0,.3-.21.42-.52.42-.67,0-1.34-.04-2-.06Z"/>
        <g>
          <path d="M3.33,8.94c-.68.08-1.06.21-1.49.44-.82.45-1.02-.28-1.7-.44.68-.16.88-.89,1.7-.44.43.23.81.36,1.49.44Z"/>
          <path d="M4.09,8.93s.01,0,.02,0c0,0-.01,0-.02,0-1.58.27-1.85,1.46-2.1,1.21-.25-.25-.02-.87.67-1.09.21-.07.44-.1.66-.12-.23-.02-.46-.06-.66-.13-.69-.22-.92-.84-.67-1.09.25-.24.52.95,2.1,1.21Z"/>
        </g>
      </g>
      <path d="M12.66,9.51c-1.21-.34-1.79-1.56-1-2.41.5-.54,1.39-.4,1.52.18.07.3-.23.53-.47.39-.19-.11-.03-.39-.42-.44.21.12,0,.3-.04.44-.13.38.27.6.6.51.3-.08.53-.47.4-.94-.19-.67-.98-.86-1.55-.6-.53.24-.84.78-.84,1.38.01,1.04,1.1,2.04,2.6,1.86,2.21-.26,3.94-2.27,7.81-1.15-4.27-1.52-6.28,1.43-8.63.78Z"/>
    </g>
    <g>
      <g>
        <path d="M94.51,8.86c.08.34-.29.58-.58.39-.12-.08-.18-.22-.17-.35.04-.46.64-.47.75-.04Z"/>
        <path d="M75.75,9.32c.15,0,.3,0,.45,0,1.51-.02,16.86-.02,16.87-.37,0-.17-.17-.11-.28-.12-1.37-.03-2.74-.05-4.11-.07-2.94-.05-5.88-.09-8.82-.15-1.98-.03-3.96-.08-5.95-.12-.05,0-.11,0-.16,0-.33,0-.53.15-.53.46,0,.3.21.42.52.42.67,0,1.34-.04,2-.06Z"/>
        <g>
          <path d="M95.91,8.94c.68.08,1.06.21,1.49.44.82.45,1.02-.28,1.7-.44-.68-.16-.88-.89-1.7-.44-.43.23-.81.36-1.49.44Z"/>
          <path d="M95.15,8.93s-.01,0-.02,0c0,0,.01,0,.02,0,1.58.27,1.85,1.46,2.1,1.21.25-.25.02-.87-.67-1.09-.21-.07-.44-.1-.66-.12.23-.02.46-.06.66-.13.69-.22.92-.84.67-1.09-.25-.24-.52.95-2.1,1.21Z"/>
        </g>
      </g>
      <path d="M86.57,9.51c1.21-.34,1.79-1.56,1-2.41-.5-.54-1.39-.4-1.52.18-.07.3.23.53.47.39.19-.11.03-.39.42-.44-.21.12,0,.3.04.44.13.38-.27.6-.6.51-.3-.08-.53-.47-.4-.94.19-.67.98-.86,1.55-.6.53.24.84.78.84,1.38-.01,1.04-1.1,2.04-2.6,1.86-2.21-.26-3.94-2.27-7.81-1.15,4.27-1.52,6.28,1.43,8.63.78Z"/>
    </g>
  </g>
</svg>